{"asset":{"version":"2.0","generator":"THREE.GLTFExporter"},"scenes":[{"name":"AuxScene","nodes":[576]}],"scene":0,"nodes":[{"mesh":0},{"mesh":1},{"mesh":2},{},{},{},{},{},{},{},{},{},{},{},{},{},{},{},{},{},{},{},{},{},{},{},{},{},{},{},{},{},{},{},{},{},{},{},{},{},{},{},{},{},{},{},{},{},{},{},{},{},{},{},{},{},{},{},{},{},{},{},{},{},{},{},{},{},{},{},{},{},{},{},{},{},{},{},{},{},{},{},{},{},{},{},{},{},{},{},{},{},{},{},{},{},{},{},{},{},{},{},{},{},{},{},{},{},{},{},{},{},{},{},{},{},{},{},{},{},{},{},{},{},{},{},{},{},{},{},{},{},{},{},{},{},{},{},{},{},{},{},{},{},{},{},{},{},{},{},{},{},{},{},{},{},{},{},{},{},{},{},{},{},{},{},{},{},{},{},{},{},{},{},{},{},{},{},{},{},{},{},{},{},{},{},{},{},{},{},{},{},{},{},{},{},{},{},{},{},{},{},{},{},{},{},{},{},{},{},{},{},{},{},{},{},{},{},{},{},{},{},{},{},{},{},{},{},{},{},{},{},{},{},{},{},{},{},{},{},{},{},{},{},{},{},{},{},{},{},{},{},{},{},{},{},{},{},{},{},{},{},{},{},{},{},{},{},{},{},{},{},{},{},{},{},{},{},{},{},{},{},{},{},{},{},{},{},{},{},{},{},{},{},{},{},{},{},{},{},{},{},{},{},{},{},{},{},{},{},{},{},{},{},{},{},{},{},{},{},{},{},{},{},{},{},{},{},{},{},{},{},{},{},{},{},{},{},{},{},{},{},{},{},{},{},{},{},{},{},{},{},{},{},{},{},{},{},{},{},{},{},{},{},{},{},{},{},{},{},{},{},{},{},{},{},{},{},{},{},{},{},{},{},{},{},{},{},{},{},{},{},{},{},{},{},{},{},{},{},{},{},{},{},{},{},{},{},{},{},{},{},{},{},{},{},{},{},{},{},{},{},{},{},{},{},{},{},{},{},{},{},{},{},{},{},{},{},{},{},{},{},{},{},{},{},{},{},{},{},{},{},{},{},{},{},{},{},{},{},{},{},{},{},{},{},{},{},{},{},{},{},{},{},{},{},{},{},{},{},{},{},{},{},{},{},{},{},{},{},{},{},{},{},{},{},{},{},{},{},{},{},{},{},{},{},{},{},{},{},{},{},{},{},{},{},{},{},{},{},{},{},{},{},{},{},{},{},{},{},{},{},{},{},{},{},{},{},{},{},{},{},{},{},{},{},{},{},{},{},{},{},{},{},{},{},{},{},{},{},{},{},{},{},{},{},{},{},{},{},{},{},{"matrix":[1,0,0,0,0,-1,1.2246467991473532e-16,0,0,-1.2246467991473532e-16,-1,0,-0.7,0.5,0,1],"children":[0,1,2,3,4,5,6,7,8,9,10,11,12,13,14,15,16,17,18,19,20,21,22,23,24,25,26,27,28,29,30,31,32,33,34,35,36,37,38,39,40,41,42,43,44,45,46,47,48,49,50,51,52,53,54,55,56,57,58,59,60,61,62,63,64,65,66,67,68,69,70,71,72,73,74,75,76,77,78,79,80,81,82,83,84,85,86,87,88,89,90,91,92,93,94,95,96,97,98,99,100,101,102,103,104,105,106,107,108,109,110,111,112,113,114,115,116,117,118,119,120,121,122,123,124,125,126,127,128,129,130,131,132,133,134,135,136,137,138,139,140,141,142,143,144,145,146,147,148,149,150,151,152,153,154,155,156,157,158,159,160,161,162,163,164,165,166,167,168,169,170,171,172,173,174,175,176,177,178,179,180,181,182,183,184,185,186,187,188,189,190,191,192,193,194,195,196,197,198,199,200,201,202,203,204,205,206,207,208,209,210,211,212,213,214,215,216,217,218,219,220,221,222,223,224,225,226,227,228,229,230,231,232,233,234,235,236,237,238,239,240,241,242,243,244,245,246,247,248,249,250,251,252,253,254,255,256,257,258,259,260,261,262,263,264,265,266,267,268,269,270,271,272,273,274,275,276,277,278,279,280,281,282,283,284,285,286,287,288,289,290,291,292,293,294,295,296,297,298,299,300,301,302,303,304,305,306,307,308,309,310,311,312,313,314,315,316,317,318,319,320,321,322,323,324,325,326,327,328,329,330,331,332,333,334,335,336,337,338,339,340,341,342,343,344,345,346,347,348,349,350,351,352,353,354,355,356,357,358,359,360,361,362,363,364,365,366,367,368,369,370,371,372,373,374,375,376,377,378,379,380,381,382,383,384,385,386,387,388,389,390,391,392,393,394,395,396,397,398,399,400,401,402,403,404,405,406,407,408,409,410,411,412,413,414,415,416,417,418,419,420,421,422,423,424,425,426,427,428,429,430,431,432,433,434,435,436,437,438,439,440,441,442,443,444,445,446,447,448,449,450,451,452,453,454,455,456,457,458,459,460,461,462,463,464,465,466,467,468,469,470,471,472,473,474,475,476,477,478,479,480,481,482,483,484,485,486,487,488,489,490,491,492,493,494,495,496,497,498,499,500,501,502,503,504,505,506,507,508,509,510,511,512,513,514,515,516,517,518,519,520,521,522,523,524,525,526,527,528,529,530,531,532,533,534,535,536,537,538,539,540,541,542,543,544,545,546,547,548,549,550,551,552,553,554,555,556,557,558,559,560,561,562,563,564,565,566,567,568,569,570,571]},{"children":[572]},{"matrix":[1,0,0,0,0,1,0,0,0,0,1,0,-687.2999878406524,1069.6887778043747,75.00000154972064,1],"children":[573]},{"children":[574]},{"children":[575]}],"bufferViews":[{"buffer":0,"byteOffset":0,"byteLength":146880,"target":34962,"byteStride":12},{"buffer":0,"byteOffset":146880,"byteLength":97920,"target":34962,"byteStride":8},{"buffer":0,"byteOffset":244800,"byteLength":146880,"target":34962,"byteStride":12},{"buffer":0,"byteOffset":391680,"byteLength":56880,"target":34962,"byteStride":12},{"buffer":0,"byteOffset":448560,"byteLength":37920,"target":34962,"byteStride":8},{"buffer":0,"byteOffset":486480,"byteLength":56880,"target":34962,"byteStride":12},{"buffer":0,"byteOffset":543360,"byteLength":51696,"target":34962,"byteStride":12},{"buffer":0,"byteOffset":595056,"byteLength":34464,"target":34962,"byteStride":8},{"buffer":0,"byteOffset":629520,"byteLength":51696,"target":34962,"byteStride":12}],"buffers":[{"byteLength":681216,"uri":"data:application/octet-stream;base64,"}],"accessors":[{"bufferView":0,"componentType":5126,"count":12240,"max":[1303.4306640625,1810.3736572265625,151.3000030517578],"min":[194.2890625,-2.7437822818756104,-1.2999999523162842],"type":"VEC3"},{"bufferView":1,"componentType":5126,"count":12240,"max":[1808.459228515625,1808],"min":[-2.7437822818756104,-150.3000030517578],"type":"VEC2"},{"bufferView":2,"componentType":5126,"count":12240,"max":[1,1,1],"min":[-1,-1,-1],"type":"VEC3"},{"bufferView":3,"componentType":5126,"count":4740,"max":[750.0999755859375,2143.121337890625,151.3000030517578],"min":[-2.0999999046325684,887.0446166992188,-1.2999999523162842],"type":"VEC3"},{"bufferView":4,"componentType":5126,"count":4740,"max":[2068.48583984375,2141],"min":[0,-150.3000030517578],"type":"VEC2"},{"bufferView":5,"componentType":5126,"count":4740,"max":[1,0.9925864934921265,1],"min":[-1,-0.9922775626182556,-1],"type":"VEC3"},{"bufferView":6,"componentType":5126,"count":4308,"max":[1378.0999755859375,2062.227294921875,151.3000030517578],"min":[761.633544921875,938.44482421875,-1.2999999523162842],"type":"VEC3"},{"bufferView":7,"componentType":5126,"count":4308,"max":[2060.4248046875,2060],"min":[761.633544921875,-150.3000030517578],"type":"VEC2"},{"bufferView":8,"componentType":5126,"count":4308,"max":[1,0.9486875534057617,1],"min":[-0.9992218017578125,-0.9922779202461243,-1],"type":"VEC3"}],"materials":[{"pbrMetallicRoughness":{"baseColorFactor":[0.783537791521566,0.783537791521566,0.783537791521566,1],"metallicFactor":0,"roughnessFactor":0},"doubleSided":true},{"pbrMetallicRoughness":{"baseColorFactor":[0.783537791521566,0.783537791521566,0.783537791521566,1],"metallicFactor":0,"roughnessFactor":0},"doubleSided":true},{"pbrMetallicRoughness":{"baseColorFactor":[0.783537791521566,0.783537791521566,0.783537791521566,1],"metallicFactor":0,"roughnessFactor":0},"doubleSided":true}],"meshes":[{"primitives":[{"mode":4,"attributes":{"POSITION":0,"TEXCOORD_0":1,"NORMAL":2},"material":0}]},{"primitives":[{"mode":4,"attributes":{"POSITION":3,"TEXCOORD_0":4,"NORMAL":5},"material":1}]},{"primitives":[{"mode":4,"attributes":{"POSITION":6,"TEXCOORD_0":7,"NORMAL":8},"material":2}]}]}